<svg width="76" height="101" fill="none" xmlns="http://www.w3.org/2000/svg"><path d="M38 76.75a9.5 9.5 0 100-19 9.5 9.5 0 000 19zM66.5 34a9.5 9.5 0 019.5 9.5V91a9.5 9.5 0 01-9.5 9.5h-57A9.5 9.5 0 010 91V43.5A9.5 9.5 0 019.5 34h4.75v-9.5a23.75 23.75 0 1147.5 0V34h4.75zM38 10.25A14.25 14.25 0 0023.75 24.5V34h28.5v-9.5A14.25 14.25 0 0038 10.25z" fill="url(#paint0_linear_109_1328)"/><defs><linearGradient id="paint0_linear_109_1328" x1="38.215" y1="100.5" x2="38.215" y2=".75" gradientUnits="userSpaceOnUse"><stop stop-color="#7842F6"/><stop offset="1" stop-color="#509CE9"/></linearGradient></defs></svg>