<svg width="86" height="106" fill="none" xmlns="http://www.w3.org/2000/svg"><path d="M43 .75l-42.75 19v28.5c0 26.363 18.24 51.015 42.75 57 24.51-5.985 42.75-30.637 42.75-57v-28.5L43 .75z" fill="url(#paint0_linear_109_1299)"/><path d="M35.875 58.7l21.02-21.018c.652-.654 1.483-.98 2.493-.98 1.01 0 1.84.327 2.494.98.653.653.98 1.484.98 2.493 0 1.01-.327 1.841-.98 2.494L38.369 66.182c-.712.712-1.544 1.068-2.494 1.068-.95 0-1.78-.356-2.493-1.068l-9.263-9.263c-.653-.653-.98-1.484-.98-2.494 0-1.009.327-1.84.98-2.493.653-.654 1.485-.98 2.494-.98 1.01 0 1.84.327 2.494.98l6.768 6.768z" fill="#fff"/><defs><linearGradient id="paint0_linear_109_1299" x1="43.242" y1="105.25" x2="43.242" y2=".75" gradientUnits="userSpaceOnUse"><stop stop-color="#7842F6"/><stop offset="1" stop-color="#509CE9"/></linearGradient></defs></svg>