<svg width="20" height="20" fill="none" xmlns="http://www.w3.org/2000/svg"><g clip-path="url(#clip0_224_1375)"><path d="M13.333 11.667h1.25v2.35l2.034 1.175-.625 1.083-2.659-1.533v-3.075zm6.667 2.5A5.833 5.833 0 0114.167 20a5.854 5.854 0 01-5.275-3.333H3.333A1.667 1.667 0 011.667 15V5a1.66 1.66 0 011.666-1.667h13.334A1.667 1.667 0 0118.333 5v5.083A5.799 5.799 0 0120 14.167zm-11.667 0c0-1.634.675-3.109 1.75-4.167h-6.75v5h5.059c-.059-.275-.059-.55-.059-.833zM14.167 10a4.167 4.167 0 100 8.333 4.167 4.167 0 000-8.333zm2.5-3.333V5H3.333v1.667h13.334z" fill="#312D3A"/></g><defs><clipPath id="clip0_224_1375"><path fill="#fff" d="M0 0h20v20H0z"/></clipPath></defs></svg>